<svg version="1.1" baseProfile="tiny" id="Layer_1" xmlns="http://www.w3.org/2000/svg" xmlns:xlink="http://www.w3.org/1999/xlink"
	 x="0px" y="0px" viewBox="0 0 171.8 24.3" xml:space="preserve">
<title>Line</title>
<g id="Layer_2_1_">
	<g id="Layer_1-2">
		<path fill="#1D1D1D" d="M171.1,17.6c-0.2-0.5-0.7-1.5-2.3-1.5c-0.3,0-0.7,0-1,0.1c-0.3-0.2-0.7-0.3-1.1-0.4h-0.3
			c-0.2-0.4-0.8-0.7-1.4-0.9l0.4-0.1c-0.4-0.5-1.2-0.8-2.1-0.9c-0.4,0-0.8,0.1-1.2,0.2l-0.3-0.4c-0.3-0.3-1-1.3-2.7-1
			c-0.5,0.1-0.9,0.3-1.2,0.5v-0.1l-1.7-0.7l-1,0.3c-0.2,0.1-0.5,0.2-0.6,0.3l0.2-0.3h-1.8v-0.4l-2.5,0.2c-0.3,0-0.6,0.1-0.9,0.2
			h-0.1l0,0c-0.3,0.1-0.5,0.2-0.7,0.4h-0.1c-0.1-0.1-0.1-0.2-0.2-0.2l-3.8,0.4c0.1-0.1,0.2-0.3,0.3-0.3c-0.2,0.1-0.4,0.3-0.6,0.4
			l-0.5,0c0.1-0.1,0.2-0.2,0.4-0.3c-0.6,0.2-1.2,0.5-1.5,0.9c-0.5-0.1-1.1-0.1-1.6-0.1v-0.5l-3.2-1l0,0l0,0l0,0
			c-0.4-0.6-1.3-1-2.3-1c-0.8,0-1.5,0.2-2,0.6c-0.7-0.6-2-0.8-3-0.4c-0.4,0.1-0.7,0.4-0.9,0.6c-0.4-0.1-0.8-0.2-1.2-0.2
			c-0.4-0.2-0.8-0.3-1.3-0.3l-1.1,0.1l-0.2-0.1l-0.1-0.3c0.2,0,0.5,0.1,0.6,0.2c-0.1-0.1-0.2-0.2-0.2-0.3c-0.3-0.3-0.7-0.6-1.2-0.8
			l-0.6,0.5c0,0-0.1-0.1-0.1-0.1l-0.6-0.6h-0.5c-0.1,0-0.1-0.1-0.2-0.1c0.2-0.1,0.4-0.1,0.7-0.1h-1.2c-0.2,0-0.4,0-0.6,0h-0.5v0.1
			c-0.3,0.1-0.5,0.1-0.7,0.3l-0.6-0.2l-1.3,1.2c-0.3-0.5-1.1-0.9-2.1-1c-0.8,0-1.6,0.2-2.1,0.7c-0.7,0.1-1.2,0.4-1.6,0.7l-0.4,0
			l0.1-0.1l-1.6,0c-0.3,0-0.6,0-0.9,0h-0.7c-0.7-0.1-1.3,0-1.9,0.3c-0.1,0.1-0.3,0.1-0.4,0.2c-0.2,0-0.5,0.1-0.7,0.2
			c0-0.1-0.1-0.3-0.2-0.4l-0.6-0.6h-1.2c-0.8,0-1.5,0.2-1.9,0.6l-0.3,0.3v0.3l-0.2,0c-0.2-0.3-0.6-0.5-1.1-0.6
			c-0.2,0-0.4-0.1-0.6-0.1c-0.4-0.2-0.8-0.4-1.3-0.4c-1.1,0-2.1,0.4-2.5,1c-0.1,0.1-0.1,0.1-0.2,0.2c-0.1-0.2-0.4-0.5-0.7-0.6l0.1-1
			L92.7,12c-0.2,0-0.4,0.1-0.6,0.2l-2-0.1c-1,0-2,0.2-2.7,0.7c-0.1,0-0.3-0.1-0.4-0.1c0-0.1,0-0.2-0.1-0.3L83.3,12
			c0.2-0.1,0.6-0.2,0.9-0.1c-0.1,0-0.3-0.1-0.5-0.2c-0.8-0.4-1.9-0.6-2.9-0.5c0-0.3-0.2-0.7-0.4-1l-2,0.3c0.3,0,0.5,0.1,0.8,0.2
			l-0.6,0l0,0l-0.2,0.1c-0.1-0.1-0.2-0.1-0.4-0.2l-0.9,0.1c0.2-0.1,0.4-0.2,0.7-0.2c-0.2,0-0.4-0.1-0.6-0.1c-0.5,0-1,0-1.4,0.2
			l-0.6-0.2c0.1-0.1,0.2-0.2,0.4-0.2l-0.2,0c-0.5,0.1-1,0.2-1.4,0.4l0,0c-1,0.1-1.9,0.3-2.6,0.7c-0.2-0.2-0.5-0.4-0.8-0.4l-2-0.6
			l-0.2,0.3h-0.3c-0.5,0.1-1,0.2-1.4,0.4c0,0-0.1-0.1-0.1-0.1l0.1-0.7l-1.6-0.2c-1.9-0.3-3.2,0.5-4.2,1.2c-0.7-0.2-1.4-0.4-2.2-0.4
			C58.2,11,58.1,11,58.1,11L57,11.3c-0.2-0.2-0.4-0.4-0.7-0.5c-0.6-0.3-1.3-0.4-2-0.3l-2-0.2V11l0,0l-0.8,0.6
			c-0.2,0.1-0.4,0.1-0.6,0.2v-0.4L49.8,11c-0.3-0.1-0.7-0.2-1-0.3l0.2-0.5l-2-0.2L46,9.9l-0.7,0.3c-0.5,0.2-0.9,0.6-1,0.9
			c-0.6-0.2-1.3-0.3-2-0.2v-0.1c0.1,0,0.3,0,0.4,0.1l-0.1,0c-0.9-0.4-2-0.4-3-0.1c-0.6,0.2-1,0.5-1.2,0.8c-0.4,0.2-0.8,0.5-1.1,0.8
			l-0.8-0.1c0,0.1-0.1,0.2-0.1,0.3c-0.5,0-0.9,0.1-1.3,0.2L35,12.9c0-0.1,0-0.1-0.1-0.2c-0.2-0.4-0.2-0.8,0-1.1l-3.8-0.7
			c0,0.1-0.1,0.1-0.1,0.2c-0.5-0.2-1.1-0.3-1.7-0.2l-2.1-0.3v1.3l-0.9-0.2c-0.1,0.1-0.3,0.1-0.4,0.2c-0.6,0.2-1.2,0.5-1.6,0.8
			C23.8,12.3,23,12,22.1,12c-1.7,0-2.6,0.9-3.2,1.6l-0.1,0.1c-1.3-0.4-2.9-0.5-4.3-0.1c-1.1,0.2-1.1,0.2-1.5-0.1l-0.2-0.2
			c-0.6-0.4-1.5-0.6-2.3-0.4c-0.5,0.1-1,0.3-1.3,0.5C8.5,12.7,7.1,12.5,6,13c-0.2,0.1-0.3,0.1-0.4,0.2c-0.2-0.6-1.1-1.2-2.1-1.2
			l-0.9-0.1l-0.7,0.4c-1.2,0.9-1.9,2.1-1.7,3.3l0.1,0.3H0.1L0,16.4h0.1l0,0c0,0.3,0,0.5,0,0.8c-0.1,1.6-0.2,3.2,0.8,4.5h0.4
			c0.3,0.5,1.1,0.9,2,0.9c0.6,0,1.2-0.2,1.6-0.4l1-0.1c0.2,0.4,0.7,0.7,1.4,0.8l2.5,0.4v-0.8l2,0.1c0-0.1,0-0.1,0-0.1l2.4-0.1
			L13,23.8l3,0.1c0.6,0,1.2-0.1,1.7-0.3c0.3-0.2,0.5-0.4,0.6-0.6l0.5,0.1c0.3-0.2,0.5-0.5,0.7-0.8l0.1,0.4l0.8,0.3
			c0.8,0.4,1.9,0.4,2.8,0.1l1.7,0.7L25,23c0.5,0,0.9-0.1,1.3-0.2v0.1l2.5-0.5c0.3-0.1,0.6-0.2,0.9-0.3l0.6,0.9l2-1
			c0.6,0.2,1.1,0.5,1.6,0.8l2.5,1.4l0.7-1.5c0.5-0.1,0.9-0.4,1-0.7h0.1c0.1-0.1,0.1-0.1,0.2-0.2c0.5,0.3,1.3,0.4,2,0.3
			c0.8-0.1,1.4-0.4,1.7-0.9c0.3,0,0.6,0,0.9,0h0.5c0.1,0.1,0.2,0.2,0.3,0.3l2.5-0.2c0.1,0.1,0.1,0.2,0.2,0.3c-0.3,0.1-0.6,0.1-0.9,0
			c0.3,0.1,0.7,0.2,1.1,0.2c0.3,0.3,0.7,0.6,1.1,0.9l0.2,0.1l1.2,0.3l0.8-0.2l2.1,0.6v-1.2l0,0c0.1,0.5,0.8,0.9,1.7,1
			c0.4,0,0.9,0,1.3-0.2l0.4,0.1c1.1,0.2,2.2,0.1,3.2-0.2c0.2,0,0.4-0.1,0.6-0.1c0.1,0.1,0.2,0.2,0.4,0.3v0.3h0.7
			c0.4,0.1,0.9,0.1,1.3,0.1c0.2,0,0.3,0,0.5-0.1c0.7,0,1.3-0.2,1.9-0.3c0.2-0.1,0.3-0.1,0.5-0.1l1.8-0.1v-0.6c0.5,0.1,1,0.1,1.4,0.1
			l0.8-0.1l0.1,0l0.2,0.1c1.1-0.1,2.1-0.4,2.9-0.9l0.2,0.1c0.8,0.6,1.8,1.4,3.4,1.2c0.8-0.1,1.5-0.4,1.9-0.9h0.7
			c0.3,0.1,0.6,0.1,0.9,0.2c0.3,0.3,0.7,0.6,1.2,0.8c0.9,0.3,2.1,0.3,3,0l0.1,0l0.1,0l1.5-0.3c-0.1,0-0.3,0-0.4,0
			c-0.2,0-0.4,0-0.6-0.1l2-0.2c-0.1,0.1-0.2,0.1-0.3,0.1l1-0.2c0.9,0.2,1.7,0.4,2.5,0.8c0.9,0.3,1.8,0.6,2.7,0.9l0.1,0
			c0.6,0.1,1.3,0.1,1.8-0.1c0.6-0.2,1-0.6,1.2-1l0.6,0.1c0.3-0.2,0.4-0.2,1.2-0.2c0.4,0,0.8,0,1.3,0c0.5,0.4,1.3,0.5,2.1,0.5l0.2,0
			c0.2,0.1,0.5,0.1,0.7,0.1c0.9,0,1.7-0.3,2.1-0.7l0.3,0.1l0,0l0,0l0.2,0.1c-0.2,0.2-0.5,0.3-0.8,0.3c0.7-0.1,1.3-0.3,1.6-0.6
			l0.7-0.1c0.2,0.1,0.4,0.2,0.7,0.3l-0.2,0.8l2-0.1l2,0.5l0.2-1c0.1,0,0.1-0.1,0.2-0.1c0.4-0.1,0.7-0.2,1-0.3l1.6,0.3l0.7-0.4l2,0.5
			c0.6-0.3,1-0.7,1.5-1.1l0.1-0.1L118,22c0.1,0,0.2,0,0.4,0h0.2l0.2,0.2h1.2c0.4,0,0.8-0.1,1.2-0.2c0.2,0,0.4-0.1,0.6-0.2
			c0.2-0.1,0.4-0.2,0.5-0.4l1.3,0.4c0.3-0.2,0.6-0.4,0.8-0.6h0.9l0.4-0.2c0.2-0.1,0.3-0.1,0.5-0.2l3.2,0.7l1.3-0.9l0,0l1.6-0.4
			l1.1,0.2c0.4,0.1,0.9,0.1,1.4,0l0.3,1.2l2.3-0.5c0.8-0.2,1.6-0.5,2.2-1l0.1-0.1c0,0,0.1,0.1,0.1,0.1l0.8,0.6l0.8-0.1
			c0.9,0,1.7-0.1,2.4-0.5c0.3,0.1,0.6,0.1,0.9,0.2l2.4,1.1l0.3-1.1c0.2,0,0.4,0,0.6-0.1v0.3l2.6,0l1.3-0.5l1.1,0l-0.2-0.3l0.2-0.1
			c0.1,0.1,0.2,0.1,0.3,0.2l0.2,0.2h0.1l0.4,0.3l1.4-0.5l0.1,0.2c0,0,0-0.1,0-0.1l1.3,0.1c0,0.1,0.1,0.1,0.1,0.2c0,0,0,0.1,0,0.1
			l0.2,0.1l0.1,0.1l-0.1-0.1l1.5,0.4c-0.2,0.1-0.4,0.1-0.6,0.1c-0.6,0.1-1.3,0-1.7-0.3c0.5,0.4,1.4,0.7,2.3,0.5
			c0.3,0,0.5-0.1,0.7-0.2l1,0.3c0.2-0.1,0.3-0.2,0.5-0.4c0.2,0,0.3,0,0.5,0c0.2,0,0.3,0,0.5-0.1c0.4,0.4,1,0.6,1.7,0.7h0.2
			c0.7,0,1.3-0.2,1.7-0.5l0.1,0c0,0,0.1,0,0.1,0l0.4,0.2l0.4-0.1l0.7,0h0.2c1.1,0,2-0.4,2.1-1.1h0.1l1.6,0.3l0.6-0.5l0.1-0.3
			C172,18.9,171.8,18.2,171.1,17.6z M120.5,22L120.5,22l-0.1-0.2c0,0,0,0,0.1,0l0.2,0.1L120.5,22z M36.5,14.4l-0.1,0.1l0,0
			L36.5,14.4z M128.6,12.3L128.6,12.3z M165.1,15.9l-0.2,0L165.1,15.9L165.1,15.9z M165.7,15.8C165.7,15.8,165.7,15.8,165.7,15.8
			c-0.1,0.1-0.2,0.1-0.4,0.1v-0.1L165.7,15.8z M165.7,15.7l-0.3,0.1l0,0c0-0.1,0-0.2,0-0.2c0,0.1-0.1,0.2-0.1,0.3l-0.4,0.1l-1.3-0.4
			l0.8-0.3C164.9,15.2,165.3,15.4,165.7,15.7L165.7,15.7z M159.6,13.9L159.6,13.9L159.6,13.9z M125.4,11.6L125.4,11.6L125.4,11.6
			L125.4,11.6z M117.3,11.3L117.3,11.3c0.5,0,1,0.1,1.4,0.4l-0.1,0.1h-1.8c-0.2-0.1-0.4-0.2-0.6-0.3
			C116.6,11.4,116.9,11.3,117.3,11.3z M114.3,12.5l-0.3,0.1v0c0-0.1,0-0.2,0-0.2C114.1,12.4,114.2,12.4,114.3,12.5L114.3,12.5z
			 M97.1,12.9l-0.4,0.4l0.1,0.2h-0.5c0-0.1-0.1-0.2-0.2-0.3C96.4,13,96.7,12.9,97.1,12.9z M72.2,12.3L72.2,12.3L72.2,12.3l-0.4-0.1
			c0,0,0-0.1,0-0.1C72,12.1,72.1,12.2,72.2,12.3z M71.2,12l0.1,0.1L71.2,12L71.2,12z M50.7,11.9L50.7,11.9z M36.7,14.5
			c-0.1,0.1-0.2,0.1-0.3,0c0,0,0,0,0,0L36.7,14.5z M6.7,14.4L6.7,14.4L6.7,14.4L6.7,14.4l-0.9-0.1c0-0.1,0-0.1,0-0.2
			C6.1,14.2,6.4,14.3,6.7,14.4z M53.9,22.5c-0.2,0-0.3,0-0.5,0c-0.4,0-0.7-0.1-1-0.3l0,0l0,0L53.9,22.5L53.9,22.5z M59.4,22.9
			L59.4,22.9l0.1-0.1L59.4,22.9C59.4,23,59.4,23,59.4,22.9L59.4,22.9z M70.4,20.6l0.3-0.2l0.5,0.1C71,20.6,70.7,20.6,70.4,20.6z
			 M72.1,21.3l0.2-0.1l0.3-0.2l0.2,0C72.6,21.2,72.4,21.3,72.1,21.3z M82.4,22.8l0.5-0.1c0.1,0.1,0.1,0.2,0.2,0.2
			C82.8,22.9,82.6,22.9,82.4,22.8z M101.4,22.7c0.2-0.1,0.3-0.2,0.4-0.3c0.2,0.1,0.4,0.1,0.6,0.2l0.2,0
			C102.2,22.6,101.8,22.7,101.4,22.7L101.4,22.7z M139.1,19.8L139.1,19.8L139.1,19.8z"/>
		<path fill="#1D1D1D" d="M144.8,13.1c0.1,0,0.1-0.1,0.2-0.1C144.9,13,144.9,13.1,144.8,13.1z"/>
	</g>
</g>
</svg>
