<svg xmlns="http://www.w3.org/2000/svg" viewBox="0 0 416 510.5"><defs><style>.cls-1{fill:#393938;}.cls-2{fill:#fcc91e;}</style></defs><title>MILL</title><g id="Layer_2" data-name="Layer 2"><g id="Layer_1-2" data-name="Layer 1"><path class="cls-1" d="M416,346.6v1c-4.86,4.36-9.9,8.53-14.54,13.11-13.88,13.69-27.6,27.53-41.39,41.32L359,403.09c-2.92,3-2.92,3-.14,5.88,1.05,1.07,2.38,2,3.08,3.24,2.3,4.14,5.95,7.09,9.43,10,2.38,2,4.51,4.2,6.87,6.17l6.62,5.51V453.7h-14v56.67h-147V465.85H192.3c-1.93,4.51-1.25,8.95-1.28,13.33-.07,9,0,18,0,27v4.34H45v-57H31.13V434A27,27,0,0,1,35,430.16c5-3.33,8.86-8.06,13.55-11.8,3-2.41,5.11-5.91,7.89-8.64,3.65-3.6,3.33-3.94-.17-7.36Q30.48,377.15,4.73,351.85C3.22,350.37,1.58,349,0,347.6v-1c3.21-2.71,6.58-5.24,9.59-8.16,6.21-6,12.76-11.65,19.3-17.3,4.85-4.18,9.41-8.67,14.1-13a4.27,4.27,0,0,1,.71-.7c5.18-2.89,8.49-7.92,13.2-11.43,5.11-3.8,9.47-8.58,14.16-12.94.36-.34.64-.87,1.07-1,2.9-1.11,4.42-3.8,6.64-5.68s4.72-3.94,7-6c4.61-4.2,9.15-8.47,13.73-12.69.46-.42,1.07-.65,1.57-1,2.79-2.16,5.69-4.25,6.49-8s1.57-7.67,2.47-11.47c.62-2.58,1-5.2,1.67-7.78,1.21-4.68,2.36-9.42,3.13-14.15.66-4.06,2.09-7.92,2.45-12.09a49.13,49.13,0,0,1,1.72-8.2c.72-2.71,1.37-5.43,2-8.16.67-2.88,1.27-5.77,2-9-2.22-1.8-4.68-3.65-7-5.69-3.17-2.81-6.21-5.77-9.39-8.58-6.09-5.39-12.12-10.86-18.31-16.16-5.11-4.38-9.89-9.14-14.81-13.73-.48-.45-.86-1.09-1.42-1.39-4.82-2.55-7.6-7.45-12.17-10.36-3-1.89-5.38-4.7-8-7.09-6.76-6.15-13.5-12.32-20.46-18.25-2.59-2.21-4.94-4.66-7.64-6.8C19,85.93,14.82,81.5,10.31,77.44c-3.37-3-6.87-5.9-10.31-8.84v-1c1.23-1.06,2.53-2,3.67-3.19Q34.62,33.51,65.54,2.58c.78-.78,1.62-1.5,2.63-2.41,3,3.44,5.92,6.44,8.74,9.59,6.32,7.06,12.68,14.1,19,21.15,5.44,6.07,10.82,12.2,16.28,18.23,6.15,6.78,12.22,13.61,18.36,20.39,5.59,6.17,11.25,12.25,16.59,18.64,2.92,3.5,6.3,6.6,9.24,10.14,5,6.06,10.68,11.62,16.39,17.74,5.93-2,11.62-4.86,17.51-7.14s11.93-5,17.58-7.13c2.73,1,5.23,1.82,7.62,2.85,2.83,1.22,5.48,2.9,8.38,3.91,5.09,1.79,10.1,3.74,15,6a30.47,30.47,0,0,0,4.41,1.31c3.36-3.76,6.72-7.08,9.85-10.66,5.68-6.51,11.66-12.77,17.22-19.4,2.82-3.38,6.19-6.24,8.89-9.8s6.38-6.5,9.18-10.19c2.64-3.5,5.93-6.5,8.87-9.8C303,49.58,309,43.29,314.52,36.64c2.71-3.25,5.89-6.06,8.55-9.42,4.08-5.13,8.88-9.68,13.31-14.53,1.41-1.53,3.08-2.75,4-4.82.71-1.56,2.47-2.66,3.78-3.94s2.55-2.44,4.11-3.93c1.39,1.54,2.44,2.82,3.6,4q30.21,30.24,60.44,60.43c1.14,1.14,2.44,2.13,3.67,3.19v1c-2.5,2-5.19,3.81-7.47,6-5.95,5.82-12.27,11.21-18.61,16.59C386.7,94,383.7,97,380.53,99.8c-6.09,5.4-12.1,10.89-18.32,16.15-3.36,2.84-6.45,6-9.75,8.91-6,5.29-12,10.5-17.92,15.85-6.41,5.81-12.77,11.64-19.34,17.27-5.23,4.49-10.12,9.37-15.16,14.08-.49.46-.87,1.21-1.43,1.37-2.74.79-3.78,3.38-6,4.87.5.71,1,1.08,1,1.47.23,4,1.62,7.68,2.43,11.51.55,2.57,1.07,5.18,1.68,7.75,1.11,4.71,2.33,9.43,3.11,14.18.67,4,1.83,8,2.49,12,.59,3.61,1.59,7.28,2.45,10.89a28.35,28.35,0,0,1,1.25,5.53,18,18,0,0,0,1,6c.82,2,1.16,4.24,3.16,5.71a90.8,90.8,0,0,1,7,6c2.39,2.19,4.91,4.27,7.28,6.44,6.24,5.73,12.65,11.28,19,16.93,6.07,5.44,12.08,10.93,18.29,16.19,3.36,2.85,6.45,6,9.75,8.92,6,5.28,11.85,10.67,18,15.81,3.49,2.93,6.54,6.34,10.13,9.23,5.11,4.11,9.69,8.86,14.51,13.32A3,3,0,0,0,416,346.6ZM163.38,139.72l-16.26-17.5c-.23-.24-.58-.43-.69-.71-1.16-3.07-4-4.65-6-7s-4-4.69-6-7c-2.35-2.69-5.17-4.9-7.16-8-1.49-2.32-4-4-5.86-6.06s-3.73-4.47-5.69-6.62c-4.2-4.62-8.47-9.16-12.71-13.74a2.38,2.38,0,0,1-.35-.36c-3-5.3-8.12-8.77-11.8-13.56-4.39-5.71-9.77-10.66-14.72-15.94-.22-.25-.56-.43-.69-.72-1.74-3.8-5.38-5.82-7.87-8.93C59.73,41.37,52.23,49,44.62,56.43c-2.9,2.85-6.13,5.37-9.08,8.18-2.37,2.25-2.33,2.8.15,5.13,1.26,1.2,2.85,2.05,4.14,3.22,3.25,3,6.44,6,9.75,8.94,6,5.28,11.86,10.69,18,15.83,3.5,2.94,6.69,6.23,10.13,9.26,6,5.28,12,10.52,17.93,15.87,6.42,5.81,12.71,11.74,19.37,17.27,2.88,2.39,5.4,5.15,8.36,7.5,5,4,9.47,8.62,14.16,13l2.58,2.41,5.78-5.77c.69.55,1.09.81,1.42,1.14l38.88,38.87c.36.36.85.65,1,1.08.36.85,1.05,2.09.72,2.61-1.47,2.32-.95,4.48-.28,6.86.62,2.21.76,4.54,2,6.05l-43.44,43.45c-1.15-1.15-2.42-2.48-3.75-3.74s-2.4-1.32-3.76-.17c-2.1,1.77-4.27,3.46-6.29,5.32-3.36,3.11-6.67,6.26-10.11,9.29-6,5.27-12,10.53-17.93,15.87-6.3,5.68-12.51,11.45-19,16.94-5.14,4.35-9.9,9.14-14.83,13.74A9.36,9.36,0,0,1,69.12,316c-4.84,2.78-8.18,7.31-12.51,10.73-5.27,4.15-9.94,9.08-14.86,13.68-.37.34-.65.87-1.08,1-3.06,1.17-4.53,4-6.65,5.65L68.2,381.22c1.74-2.12,3.82-4.83,6.09-7.37,2.94-3.28,6-6.48,8.93-9.75,6.13-6.79,12.2-13.63,18.34-20.42,5.58-6.17,11.24-12.25,16.58-18.64,2.93-3.5,6.21-6.71,9.26-10.12,5.65-6.33,11.38-12.58,16.9-19,4.48-5.24,9.42-10.09,14.07-15.2,1.8-2,3.35-4.19,5-6.24L158,269.12q21.56-21.56,43-43.11c1.52-1.54,3.1-2,4.77-1a3.83,3.83,0,0,0,4.07.18c2.36-1.38,3.88-.38,5.52,1.27,7.73,7.82,15.53,15.57,23.31,23.35l20,20-5.59,5.07a26.66,26.66,0,0,0,2.85,4.12c6.34,6.39,12.18,13.21,18,20,2.64,3.1,5.49,6,8.22,9.05,6.14,6.78,12.32,13.52,18.3,20.45,4.51,5.22,9.39,10.13,14.1,15.17a7.56,7.56,0,0,1,1.05,1.07c3.07,5.26,8.29,8.65,11.74,13.61,2.13,3.05,5.13,5.4,7.48,8.38,4.15,5.27,9,10,13,14.24l34-34a69.57,69.57,0,0,0-8-7.11c-3.25-2.44-6-5.49-9.07-8.19-6.35-5.62-12.65-11.3-19.05-16.87-5.2-4.54-10.12-9.39-15.17-14.11-.24-.23-.43-.58-.71-.69-2.76-1-4.21-3.53-6.3-5.31S319.1,291,317,289c-4.85-4.44-9.63-8.95-14.44-13.42-.13-.12-.22-.28-.36-.35-3.4-1.55-5.22-4.94-8.11-7a89.1,89.1,0,0,1-8.39-7.47c-2.75-2.55-5.63-4.94-8.4-7.45a2.24,2.24,0,0,0-3.41,0c-1.5,1.4-2.91,2.88-3.84,3.81l-43.47-43.46A22.14,22.14,0,0,0,229,202.5c-2.39-2.79-.08-4.32,1.61-6l36.76-36.76,2.5-2.5c2.52,1.7,3.85,4.41,6.51,5.62,2.59-2.63,4.72-5.59,7.56-7.5,4.48-3,7.63-7.45,12.12-10.44,2.95-2,5.38-4.72,8-7.12,6.88-6.29,13.8-12.52,20.84-18.62,2.46-2.12,4.89-4.3,7.27-6.47q10-9.08,20.11-17.93c4.83-4.21,9.41-8.69,14.1-13,.25-.23.43-.59.72-.69,2.91-1.08,4.42-3.8,6.64-5.68s4.52-3.68,6.64-5.67c2.37-2.22,2.41-3.77-.36-5.44-3.6-2.18-6.15-5.38-9.06-8.23-7.55-7.4-15-14.93-22.52-22.47-2.8,3.33-5.95,5.91-8.36,9.3-2.63,3.7-6.16,6.74-9.22,10.15-6.2,6.94-12.58,13.74-18.62,20.84-2.64,3.1-5.55,6-8.24,9C298.1,89.62,292,96.18,286.08,103c-2.66,3.08-5.73,5.76-8.2,9.08-2.72,3.64-6.3,6.58-9.2,10.18-4.21,5.23-9.09,9.94-13.68,14.86l-2.42,2.57,5.47,5.49-41,41c-1.57-1.37-4-1-5.94-1.77-2.55-1-4.51,0-6.76.06a13.75,13.75,0,0,0-5.27,1.64l-41-41ZM191,384.43h32.76V335.6c-9.9,0-19.55,0-29.2,0-2.92,0-3.54.56-3.55,3.3C191,354,191,369.15,191,384.43Z"/><path class="cls-2" d="M163.38,139.72l-16.26-17.5c-.23-.24-.58-.43-.69-.71-1.16-3.07-4-4.65-6-7s-4-4.69-6-7c-2.35-2.69-5.17-4.9-7.16-8-1.49-2.32-4-4-5.86-6.06s-3.73-4.47-5.69-6.62c-4.2-4.62-8.47-9.16-12.71-13.74a2.38,2.38,0,0,1-.35-.36c-3-5.3-8.12-8.77-11.8-13.56-4.39-5.71-9.77-10.66-14.72-15.94-.22-.25-.56-.43-.69-.72-1.74-3.8-5.38-5.82-7.87-8.93C59.73,41.37,52.23,49,44.62,56.43c-2.9,2.85-6.13,5.37-9.08,8.18-2.37,2.25-2.33,2.8.15,5.13,1.26,1.2,2.85,2.05,4.14,3.22,3.25,3,6.44,6,9.75,8.94,6,5.28,11.86,10.69,18,15.83,3.5,2.94,6.69,6.23,10.13,9.26,6,5.28,12,10.52,17.93,15.87,6.42,5.81,12.71,11.74,19.37,17.27,2.88,2.39,5.4,5.15,8.36,7.5,5,4,9.47,8.62,14.16,13l2.58,2.41,5.78-5.77c.69.55,1.09.81,1.42,1.14l38.88,38.87c.36.36.85.65,1,1.08.36.85,1.05,2.09.72,2.61-1.47,2.32-.95,4.48-.28,6.86.62,2.21.76,4.54,2,6.05l-43.44,43.45c-1.15-1.15-2.42-2.48-3.75-3.74s-2.4-1.32-3.76-.17c-2.1,1.77-4.27,3.46-6.29,5.32-3.36,3.11-6.67,6.26-10.11,9.29-6,5.27-12,10.53-17.93,15.87-6.3,5.68-12.51,11.45-19,16.94-5.14,4.35-9.9,9.14-14.83,13.74A9.36,9.36,0,0,1,69.12,316c-4.84,2.78-8.18,7.31-12.51,10.73-5.27,4.15-9.94,9.08-14.86,13.68-.37.34-.65.87-1.08,1-3.06,1.17-4.53,4-6.65,5.65L68.2,381.22c1.74-2.12,3.82-4.83,6.09-7.37,2.94-3.28,6-6.48,8.93-9.75,6.13-6.79,12.2-13.63,18.34-20.42,5.58-6.17,11.24-12.25,16.58-18.64,2.93-3.5,6.21-6.71,9.26-10.12,5.65-6.33,11.38-12.58,16.9-19,4.48-5.24,9.42-10.09,14.07-15.2,1.8-2,3.35-4.19,5-6.24L158,269.12q21.56-21.56,43-43.11c1.52-1.54,3.1-2,4.77-1a3.83,3.83,0,0,0,4.07.18c2.36-1.38,3.88-.38,5.52,1.27,7.73,7.82,15.53,15.57,23.31,23.35l20,20-5.59,5.07a26.66,26.66,0,0,0,2.85,4.12c6.34,6.39,12.18,13.21,18,20,2.64,3.1,5.49,6,8.22,9.05,6.14,6.78,12.32,13.52,18.3,20.45,4.51,5.22,9.39,10.13,14.1,15.17a7.56,7.56,0,0,1,1.05,1.07c3.07,5.26,8.29,8.65,11.74,13.61,2.13,3.05,5.13,5.4,7.48,8.38,4.15,5.27,9,10,13,14.24l34-34a69.57,69.57,0,0,0-8-7.11c-3.25-2.44-6-5.49-9.07-8.19-6.35-5.62-12.65-11.3-19.05-16.87-5.2-4.54-10.12-9.39-15.17-14.11-.24-.23-.43-.58-.71-.69-2.76-1-4.21-3.53-6.3-5.31S319.1,291,317,289c-4.85-4.44-9.63-8.95-14.44-13.42-.13-.12-.22-.28-.36-.35-3.4-1.55-5.22-4.94-8.11-7a89.1,89.1,0,0,1-8.39-7.47c-2.75-2.55-5.63-4.94-8.4-7.45a2.24,2.24,0,0,0-3.41,0c-1.5,1.4-2.91,2.88-3.84,3.81l-43.47-43.46A22.14,22.14,0,0,0,229,202.5c-2.39-2.79-.08-4.32,1.61-6l36.76-36.76,2.5-2.5c2.52,1.7,3.85,4.41,6.51,5.62,2.59-2.63,4.72-5.59,7.56-7.5,4.48-3,7.63-7.45,12.12-10.44,2.95-2,5.38-4.72,8-7.12,6.88-6.29,13.8-12.52,20.84-18.62,2.46-2.12,4.89-4.3,7.27-6.47q10-9.08,20.11-17.93c4.83-4.21,9.41-8.69,14.1-13,.25-.23.43-.59.72-.69,2.91-1.08,4.42-3.8,6.64-5.68s4.52-3.68,6.64-5.67c2.37-2.22,2.41-3.77-.36-5.44-3.6-2.18-6.15-5.38-9.06-8.23-7.55-7.4-15-14.93-22.52-22.47-2.8,3.33-5.95,5.91-8.36,9.3-2.63,3.7-6.16,6.74-9.22,10.15-6.2,6.94-12.58,13.74-18.62,20.84-2.64,3.1-5.55,6-8.24,9C298.1,89.62,292,96.18,286.08,103c-2.66,3.08-5.73,5.76-8.2,9.08-2.72,3.64-6.3,6.58-9.2,10.18-4.21,5.23-9.09,9.94-13.68,14.86l-2.42,2.57,5.47,5.49-41,41c-1.57-1.37-4-1-5.94-1.77-2.55-1-4.51,0-6.76.06a13.75,13.75,0,0,0-5.27,1.64l-41-41Z"/></g></g></svg>